<mxfile host="app.diagrams.net" modified="2024-03-10T21:05:52.021Z" agent="Mozilla/5.0 (Macintosh; Intel Mac OS X 10_15_7) AppleWebKit/537.36 (KHTML, like Gecko) Chrome/122.0.0.0 Safari/537.36" etag="futwGQnEVgGCQUKOcwDg" version="23.1.1" type="github">
  <diagram name="Page-1" id="wgi6fAATVUBqVqse386n">
    <mxGraphModel dx="2161" dy="695" grid="1" gridSize="10" guides="1" tooltips="1" connect="1" arrows="1" fold="1" page="1" pageScale="1" pageWidth="827" pageHeight="1169" math="0" shadow="0">
      <root>
        <mxCell id="0" />
        <mxCell id="1" parent="0" />
        <mxCell id="Yk6125p111121bYtoB1d-4" style="edgeStyle=orthogonalEdgeStyle;rounded=0;orthogonalLoop=1;jettySize=auto;html=1;" edge="1" parent="1" source="Yk6125p111121bYtoB1d-1" target="Yk6125p111121bYtoB1d-3">
          <mxGeometry relative="1" as="geometry" />
        </mxCell>
        <mxCell id="Yk6125p111121bYtoB1d-1" value="" style="dashed=0;outlineConnect=0;html=1;align=center;labelPosition=center;verticalLabelPosition=bottom;verticalAlign=top;shape=mxgraph.webicons.json;gradientColor=#DFDEDE" vertex="1" parent="1">
          <mxGeometry x="-210" y="170" width="90" height="90" as="geometry" />
        </mxCell>
        <mxCell id="Yk6125p111121bYtoB1d-3" value="Amazon S3" style="sketch=0;outlineConnect=0;fontColor=#232F3E;gradientColor=none;strokeColor=#ffffff;fillColor=#232F3E;dashed=0;verticalLabelPosition=middle;verticalAlign=bottom;align=center;html=1;whiteSpace=wrap;fontSize=10;fontStyle=1;spacing=3;shape=mxgraph.aws4.productIcon;prIcon=mxgraph.aws4.s3;" vertex="1" parent="1">
          <mxGeometry x="20" y="150" width="100" height="130" as="geometry" />
        </mxCell>
        <mxCell id="Yk6125p111121bYtoB1d-9" style="edgeStyle=orthogonalEdgeStyle;rounded=0;orthogonalLoop=1;jettySize=auto;html=1;exitX=1;exitY=0.5;exitDx=0;exitDy=0;exitPerimeter=0;" edge="1" parent="1" source="Yk6125p111121bYtoB1d-5" target="Yk6125p111121bYtoB1d-7">
          <mxGeometry relative="1" as="geometry" />
        </mxCell>
        <mxCell id="Yk6125p111121bYtoB1d-12" style="edgeStyle=orthogonalEdgeStyle;rounded=0;orthogonalLoop=1;jettySize=auto;html=1;" edge="1" parent="1" source="Yk6125p111121bYtoB1d-5" target="Yk6125p111121bYtoB1d-10">
          <mxGeometry relative="1" as="geometry" />
        </mxCell>
        <mxCell id="Yk6125p111121bYtoB1d-5" value="" style="outlineConnect=0;dashed=0;verticalLabelPosition=bottom;verticalAlign=top;align=center;html=1;shape=mxgraph.aws3.lambda_function;fillColor=#F58534;gradientColor=none;" vertex="1" parent="1">
          <mxGeometry x="379" y="179" width="69" height="72" as="geometry" />
        </mxCell>
        <mxCell id="Yk6125p111121bYtoB1d-6" style="edgeStyle=orthogonalEdgeStyle;rounded=0;orthogonalLoop=1;jettySize=auto;html=1;entryX=0;entryY=0.5;entryDx=0;entryDy=0;entryPerimeter=0;" edge="1" parent="1" source="Yk6125p111121bYtoB1d-3" target="Yk6125p111121bYtoB1d-5">
          <mxGeometry relative="1" as="geometry" />
        </mxCell>
        <mxCell id="Yk6125p111121bYtoB1d-7" value="Amazon S3" style="sketch=0;outlineConnect=0;fontColor=#232F3E;gradientColor=none;strokeColor=#ffffff;fillColor=#232F3E;dashed=0;verticalLabelPosition=middle;verticalAlign=bottom;align=center;html=1;whiteSpace=wrap;fontSize=10;fontStyle=1;spacing=3;shape=mxgraph.aws4.productIcon;prIcon=mxgraph.aws4.s3;" vertex="1" parent="1">
          <mxGeometry x="690" y="150" width="100" height="130" as="geometry" />
        </mxCell>
        <mxCell id="Yk6125p111121bYtoB1d-13" style="edgeStyle=orthogonalEdgeStyle;rounded=0;orthogonalLoop=1;jettySize=auto;html=1;" edge="1" parent="1" source="Yk6125p111121bYtoB1d-10" target="Yk6125p111121bYtoB1d-11">
          <mxGeometry relative="1" as="geometry" />
        </mxCell>
        <mxCell id="Yk6125p111121bYtoB1d-10" value="Amazon SNS" style="sketch=0;outlineConnect=0;fontColor=#232F3E;gradientColor=none;strokeColor=#ffffff;fillColor=#232F3E;dashed=0;verticalLabelPosition=middle;verticalAlign=bottom;align=center;html=1;whiteSpace=wrap;fontSize=10;fontStyle=1;spacing=3;shape=mxgraph.aws4.productIcon;prIcon=mxgraph.aws4.sns;" vertex="1" parent="1">
          <mxGeometry x="379" y="370" width="70" height="100" as="geometry" />
        </mxCell>
        <mxCell id="Yk6125p111121bYtoB1d-11" value="" style="html=1;verticalLabelPosition=bottom;align=center;labelBackgroundColor=#ffffff;verticalAlign=top;strokeWidth=2;strokeColor=#0080F0;shadow=0;dashed=0;shape=mxgraph.ios7.icons.mail;" vertex="1" parent="1">
          <mxGeometry x="600" y="390" width="80" height="60" as="geometry" />
        </mxCell>
        <mxCell id="Yk6125p111121bYtoB1d-16" value="Delivery Data from DoorDash." style="text;strokeColor=none;align=center;fillColor=none;html=1;verticalAlign=middle;whiteSpace=wrap;rounded=0;" vertex="1" parent="1">
          <mxGeometry x="-195" y="270" width="60" height="30" as="geometry" />
        </mxCell>
        <mxCell id="Yk6125p111121bYtoB1d-18" value="S3 bucket which is source, where the DoorDash json file is uploaded" style="text;strokeColor=none;align=center;fillColor=none;html=1;verticalAlign=middle;whiteSpace=wrap;rounded=0;" vertex="1" parent="1">
          <mxGeometry x="30" y="330" width="60" height="30" as="geometry" />
        </mxCell>
        <mxCell id="Yk6125p111121bYtoB1d-19" value="File upload on S3 will trigger this lambda" style="text;strokeColor=none;align=center;fillColor=none;html=1;verticalAlign=middle;whiteSpace=wrap;rounded=0;" vertex="1" parent="1">
          <mxGeometry x="130" y="179" width="220" height="30" as="geometry" />
        </mxCell>
        <mxCell id="Yk6125p111121bYtoB1d-23" value="Lambda will filter the records based on delivery status, and store it in different S3 location, which will be our destination." style="text;strokeColor=none;align=center;fillColor=none;html=1;verticalAlign=middle;whiteSpace=wrap;rounded=0;" vertex="1" parent="1">
          <mxGeometry x="449" y="170" width="250" height="30" as="geometry" />
        </mxCell>
        <mxCell id="Yk6125p111121bYtoB1d-24" value="Lambda will also trigger SNS to send the notificaiton to email" style="text;strokeColor=none;align=center;fillColor=none;html=1;verticalAlign=middle;whiteSpace=wrap;rounded=0;" vertex="1" parent="1">
          <mxGeometry x="310" y="290" width="90" height="30" as="geometry" />
        </mxCell>
        <mxCell id="Yk6125p111121bYtoB1d-25" value="Notification Received via email." style="text;strokeColor=none;align=center;fillColor=none;html=1;verticalAlign=middle;whiteSpace=wrap;rounded=0;" vertex="1" parent="1">
          <mxGeometry x="610" y="350" width="60" height="30" as="geometry" />
        </mxCell>
      </root>
    </mxGraphModel>
  </diagram>
</mxfile>
